<?xml version="1.0" encoding="utf-8"?>
<!-- Generator: Adobe Illustrator 24.2.3, SVG Export Plug-In . SVG Version: 6.00 Build 0)  -->
<svg version="1.1" id="Layer_1" xmlns="http://www.w3.org/2000/svg" xmlns:xlink="http://www.w3.org/1999/xlink" x="0px" y="0px"
	 viewBox="0 0 50 50" style="enable-background:new 0 0 50 50;" xml:space="preserve">
<style type="text/css">
	.st0{fill:#10408F;}
</style>
<g id="Group_249" transform="translate(0 0)">
	<path id="Path_7015" class="st0" d="M33,36.3h-1.73c-8.17,0-16.34,0-24.51,0c-3.45-0.01-5.92-1.9-6.44-4.94
		c-0.12-0.68-0.35-1.44,0.63-1.86c0.24-0.11,0.29-0.82,0.3-1.25C1.26,20.07,1.27,11.9,1.26,3.73C1.26,0.9,2.15,0,4.94,0
		c11.61,0,23.22,0,34.83,0c2.58,0,3.55,0.99,3.55,3.61c0,5.59,0,11.18,0,16.77v1.58c1.31,0,2.54-0.01,3.77,0
		c1.86,0.02,2.69,0.84,2.69,2.68c0.01,7.57,0.01,15.14,0,22.71c0,1.77-0.83,2.62-2.61,2.63c-3.83,0.03-7.65,0.03-11.48,0
		C33.78,49.97,33,49.14,33,47.17C32.99,43.61,33,40.05,33,36.3z M41.58,21.96c0.04-0.46,0.09-0.8,0.09-1.13c0-5.76,0-11.52,0-17.29
		c0-1.7-0.31-1.98-2.08-1.98c-11.57,0-23.13,0-34.7,0c-1.9,0-2.14,0.25-2.14,2.18c0,8.13,0,16.25,0,24.38c0,0.45,0.05,0.9,0.07,1.34
		H33c0-1.62,0-3.12,0-4.62c0.01-2.1,0.77-2.87,2.88-2.88C37.76,21.95,39.65,21.96,41.58,21.96L41.58,21.96z M48.2,27.76H34.64v16.54
		H48.2L48.2,27.76z M32.86,31.2H1.94c0.41,2.27,2.05,3.52,4.68,3.52c8.37,0.01,16.75,0.01,25.12,0c0.37,0,0.74-0.06,1.12-0.1
		L32.86,31.2z M48.09,46.05H34.65c-0.25,2.4-0.21,2.45,2,2.45h9.54C48.35,48.49,48.47,48.34,48.09,46.05z M34.56,26.01h13.68
		c0-0.52-0.02-0.94,0-1.36c0.03-0.7-0.27-1.02-0.98-1.02c-3.9,0.01-7.8,0.01-11.71,0.01c-0.69,0-1.03,0.32-0.99,1.03
		C34.58,25.08,34.56,25.5,34.56,26.01z"/>
	<path id="Path_7016" class="st0" d="M27.23,12.93c1.4-0.59,2.69-1.15,4-1.68c1.16-0.47,1.51-0.25,1.51,0.98
		c0.02,3.18,0.02,6.36,0,9.54c-0.01,1.24-0.35,1.47-1.49,1.01c-1.31-0.52-2.6-1.08-4.03-1.68c-0.11,1.81-1.26,2-2.69,1.98
		c-3.56-0.05-7.13-0.01-10.7-0.02c-1.75-0.01-2.21-0.48-2.21-2.22c-0.01-2.58-0.01-5.16,0-7.73c0.01-1.64,0.51-2.14,2.17-2.15
		c1.71-0.02,3.43,0,5.29,0c-0.38-1.19-0.77-2.05-2.17-1.9c-0.94,0.09-1.89,0.09-2.83-0.02c-0.35-0.04-0.65-0.47-0.98-0.72
		c0.32-0.27,0.62-0.75,0.95-0.76c1.46-0.09,2.92-0.09,4.38,0c0.49,0.09,0.91,0.4,1.13,0.84c0.88,2.46,2.7,2.79,4.99,2.6
		C26.52,10.81,26.83,11.15,27.23,12.93z M13.26,12.58v8.74h12.15v-8.74H13.26z M31.14,21v-8.06c-1.29,0.53-2.47,1-3.63,1.53
		c-0.24,0.15-0.39,0.4-0.42,0.68c-0.04,1.2-0.05,2.41,0,3.61c0.04,0.32,0.22,0.6,0.49,0.76C28.69,20.03,29.85,20.47,31.14,21
		L31.14,21z"/>
	<path id="Path_7017" class="st0" d="M38.87,35.98c0-0.98-0.03-1.97,0.01-2.95c0.04-1.08,0.49-1.36,1.36-0.79
		c1.51,0.98,2.98,2.01,4.44,3.06c0.7,0.5,0.65,1.06-0.05,1.54c-1.48,1.02-2.97,2.03-4.47,3.02c-0.77,0.5-1.24,0.22-1.28-0.66
		C38.84,38.13,38.88,37.05,38.87,35.98z M40.4,37.79l2.57-1.83l-2.57-1.73V37.79z"/>
	<path id="Path_7018" class="st0" d="M21.65,33.79c-0.21,0-0.47,0.07-0.63-0.01c-0.41-0.24-0.81-0.51-1.19-0.79
		c0.41-0.25,0.79-0.6,1.24-0.72c0.5-0.13,1.02-0.13,1.52,0c0.4,0.11,0.73,0.49,1.09,0.76c-0.35,0.28-0.73,0.53-1.13,0.75
		C22.29,33.88,21.95,33.79,21.65,33.79z"/>
</g>
</svg>
