<?xml version="1.0" encoding="utf-8"?>
<!-- Generator: Adobe Illustrator 24.2.3, SVG Export Plug-In . SVG Version: 6.00 Build 0)  -->
<svg version="1.1" id="Layer_1" xmlns="http://www.w3.org/2000/svg" xmlns:xlink="http://www.w3.org/1999/xlink" x="0px" y="0px"
	 viewBox="0 0 50 50" style="enable-background:new 0 0 50 50;" xml:space="preserve">
<style type="text/css">
	.st0{fill:#10408F;}
</style>
<g id="Group_247" transform="translate(0 0)">
	<path id="Path_7007" class="st0" d="M29.65,0c0.29,0.12,0.58,0.23,0.86,0.36c1.76,0.8,2.93,2.09,3.34,4.01
		c0.09,0.59,0.13,1.18,0.11,1.78c0.02,0.8,0,1.6,0,2.41h-3.09V6.14H7.62v33.4h26.3c0,0.07,0.01,0.14,0.01,0.22
		c0,1.58,0,3.16-0.01,4.74c-0.02,2.47-1.28,4.11-3.46,5.13c-0.51,0.24-1.06,0.35-1.62,0.33c-1.31-0.03-2.62,0-3.93,0
		c-0.09,0-0.18,0.02-0.28,0.03H10.77c-0.3-0.02-0.61-0.05-0.91-0.05c-1.31,0.03-2.57-0.45-3.53-1.34c-0.68-0.61-1.21-1.37-1.54-2.22
		c-0.17-0.4-0.26-0.84-0.26-1.28c0-7.28-0.02-14.55-0.02-21.83c0-6.12,0.03-12.24,0.05-18.36c0-0.19,0.01-0.37,0.04-0.56
		c0.17-0.91,0.58-1.75,1.19-2.44c1.04-1.18,2.3-1.92,3.92-1.89c0.25,0,0.51-0.03,0.76-0.04L29.65,0z M19.23,47.25
		c1.36,0,2.46-1.1,2.46-2.46c0,0,0,0,0,0c-0.02-1.35-1.09-2.45-2.44-2.5c-1.53-0.07-2.54,1.45-2.55,2.5
		C16.74,46.15,17.86,47.24,19.23,47.25z"/>
	<path id="Path_7008" class="st0" d="M40.46,13.67l2.56,2.55l-2.51,2.5c0.72,1.07,1.23,2.27,1.5,3.53h3.49v3.62h-3.43
		c-0.27,0.75-0.51,1.46-0.79,2.16c-0.18,0.4-0.38,0.8-0.61,1.18c-0.1,0.12-0.09,0.3,0.03,0.41c0.01,0.01,0.02,0.01,0.02,0.02
		c0.71,0.69,1.41,1.4,2.11,2.11c0.06,0.06,0.12,0.12,0.16,0.17l-2.51,2.5l-2.42-2.45c-0.32,0.2-0.64,0.37-0.98,0.53
		c-0.78,0.31-1.56,0.6-2.36,0.87c-0.2,0.07-0.26,0.15-0.26,0.35c0.01,0.99,0,1.99,0,2.98v0.29h-3.62v-0.28c0-1.01,0-2.02,0-3.04
		c0-0.15-0.02-0.25-0.2-0.29c-1.18-0.28-2.3-0.75-3.33-1.4l-2.44,2.46l-2.59-2.6l2.45-2.4c-0.22-0.37-0.43-0.75-0.6-1.14
		c-0.29-0.73-0.53-1.48-0.78-2.23c-0.05-0.16-0.11-0.22-0.29-0.22c-0.99,0.01-1.97,0-2.96,0h-0.29v-3.61h3.47
		c0.07-0.27,0.13-0.53,0.2-0.78c0.26-0.86,0.62-1.69,1.08-2.47c0.12-0.14,0.1-0.35-0.04-0.47c-0.01-0.01-0.01-0.01-0.02-0.02
		c-0.77-0.73-1.54-1.47-2.29-2.18l2.67-2.66l2.37,2.41c0.7-0.33,1.34-0.65,1.99-0.92c0.44-0.17,0.88-0.3,1.34-0.41
		c0.2-0.05,0.27-0.12,0.27-0.34c-0.01-1-0.01-2.01-0.01-3.01v-0.28h3.57c0,0.13,0,0.23,0,0.32c0.01,0.99,0.03,1.99,0.04,2.98
		c0,0.2,0.06,0.27,0.26,0.31c1.08,0.23,2.06,0.74,3.04,1.22c0.14,0.11,0.34,0.08,0.45-0.07c0,0,0,0,0,0
		C38.96,15.17,39.72,14.42,40.46,13.67z M28.73,24.05c0,2.17,1.76,3.92,3.93,3.92c2.17,0,3.92-1.76,3.92-3.93
		c0-2.17-1.76-3.92-3.93-3.92c-0.01,0-0.03,0-0.04,0C30.47,20.17,28.75,21.91,28.73,24.05L28.73,24.05z"/>
	<path id="Path_7009" class="st0" d="M10.26,13.74V9.46h6.91c0,0.09,0.01,0.18,0.01,0.26c0,1.26,0,2.52,0,3.77
		c0,0.19-0.03,0.27-0.25,0.27c-2.15-0.01-4.3,0-6.45-0.01C10.42,13.76,10.34,13.75,10.26,13.74z"/>
	<path id="Path_7010" class="st0" d="M10.28,24.66v-4.24h6.88v4.24L10.28,24.66z"/>
	<path id="Path_7011" class="st0" d="M10.26,36.01v-4.16h6.91v4.16L10.26,36.01z"/>
</g>
</svg>
