<?xml version="1.0" encoding="utf-8"?>
<!-- Generator: Adobe Illustrator 24.2.3, SVG Export Plug-In . SVG Version: 6.00 Build 0)  -->
<svg version="1.1" id="Layer_1" xmlns="http://www.w3.org/2000/svg" xmlns:xlink="http://www.w3.org/1999/xlink" x="0px" y="0px"
	 viewBox="0 0 117.87 118.16" style="enable-background:new 0 0 117.87 118.16;" xml:space="preserve">
<style type="text/css">
	.st0{fill:url(#Path_2089_1_);}
	.st1{fill:url(#Path_2090_1_);}
	.st2{fill:url(#Path_2091_1_);}
	.st3{fill:url(#Path_2092_1_);}
</style>
<g id="Behance" transform="translate(-2417.971 -284.531)">
	<linearGradient id="Path_2089_1_" gradientUnits="userSpaceOnUse" x1="2417.6799" y1="343.6128" x2="2535.844" y2="343.6128">
		<stop  offset="0.2809" style="stop-color:#10408F"/>
		<stop  offset="1" style="stop-color:#287CE0"/>
	</linearGradient>
	<path id="Path_2089" class="st0" d="M2476.9,284.53c-32.63-0.08-59.14,26.31-59.22,58.94s26.31,59.14,58.94,59.22
		c32.63,0.08,59.15-26.31,59.22-58.94c0-0.05,0-0.1,0-0.15C2535.84,311.04,2509.47,284.61,2476.9,284.53z M2486.91,327.75
		c0.08-0.86,0.02-1.73,0.02-2.85h3.32c3.97,0,7.94,0.02,11.92-0.01c0.82,0,1.21,0.22,1.15,1.11s-0.01,1.82-0.01,2.85
		c-0.48,0.05-0.85,0.13-1.22,0.13c-4.63,0-9.26-0.02-13.89,0.02C2487.25,329,2486.83,328.77,2486.91,327.75L2486.91,327.75z
		 M2476.4,356.98c-2.29,4.76-6.27,6.8-11.3,6.91c-6.63,0.15-13.27,0.09-19.9,0.15c-0.81,0-1.04-0.31-1.04-1.09
		c0.01-12.91,0.01-25.82,0-38.73c0-0.81,0.29-1.05,1.07-1.05c6.59,0.03,13.19-0.01,19.77,0.08c2.41,0.04,4.78,0.7,6.86,1.92
		c5.57,3.15,6.02,13.7,0.24,16.42c-0.19,0.12-0.37,0.26-0.53,0.43c0.97,0.66,1.89,1.22,2.73,1.87
		C2478,346.77,2478.24,353.17,2476.4,356.98L2476.4,356.98z M2509.47,350.26h-20.9c-0.38,2.95,1.33,5.76,4.12,6.79
		c3.27,1.17,6.54,0.31,8.36-2.16c0.23-0.34,0.59-0.58,1-0.67c2.31-0.06,4.61-0.03,7.11-0.03c-0.33,2.25-1.47,4.31-3.21,5.78
		c-3.95,3.73-8.77,4.43-13.81,3.44c-7.28-1.42-11.11-6.18-11.38-13.63c-0.15-3.91,0.19-7.76,2.45-11.09c3.4-5,8.43-6.43,14.13-5.83
		c6.94,0.73,11.6,5.65,12.13,12.64C2509.57,347,2509.47,348.53,2509.47,350.26L2509.47,350.26z"/>
	<linearGradient id="Path_2090_1_" gradientUnits="userSpaceOnUse" x1="2453.5876" y1="351.4405" x2="2468.9602" y2="351.4405">
		<stop  offset="0.2809" style="stop-color:#10408F"/>
		<stop  offset="1" style="stop-color:#287CE0"/>
	</linearGradient>
	<path id="Path_2090" class="st1" d="M2464.28,346.23c-1.73-0.16-3.48-0.17-5.22-0.25c0,0.02,0,0.05,0,0.07
		c-1.48,0-2.96,0.02-4.44-0.01c-0.69-0.01-1.04,0.17-1.03,0.95c0.03,3.01-0.01,6.03,0.05,9.04c0,0.31,0.49,0.87,0.75,0.87
		c3.35,0,6.72,0.07,10.05-0.2c3.09-0.25,4.61-2.35,4.52-5.66C2468.88,348.24,2467.25,346.51,2464.28,346.23z"/>
	<linearGradient id="Path_2091_1_" gradientUnits="userSpaceOnUse" x1="2453.6719" y1="334.7389" x2="2468.1157" y2="334.7389">
		<stop  offset="0.2809" style="stop-color:#10408F"/>
		<stop  offset="1" style="stop-color:#287CE0"/>
	</linearGradient>
	<path id="Path_2091" class="st2" d="M2464.05,339.09c0.52-0.04,1.03-0.16,1.52-0.37c1.82-0.67,2.65-2.1,2.54-4.26
		s-0.93-3.48-3-3.66c-3.72-0.33-7.46-0.31-11.2-0.43c-0.07,0-0.14,0.1-0.23,0.17v8.57C2457.19,339.11,2460.62,339.12,2464.05,339.09
		z"/>
	<linearGradient id="Path_2092_1_" gradientUnits="userSpaceOnUse" x1="2488.7461" y1="342.1003" x2="2501.5901" y2="342.1003">
		<stop  offset="0.2809" style="stop-color:#10408F"/>
		<stop  offset="1" style="stop-color:#287CE0"/>
	</linearGradient>
	<path id="Path_2092" class="st3" d="M2495.17,339.04c-3.39-0.15-6.27,2.47-6.42,5.86c0,0.09-0.01,0.17-0.01,0.26h12.84
		C2501.57,341.54,2498.89,339.04,2495.17,339.04z"/>
</g>
</svg>
