<?xml version="1.0" encoding="utf-8"?>
<!-- Generator: Adobe Illustrator 24.2.3, SVG Export Plug-In . SVG Version: 6.00 Build 0)  -->
<svg version="1.1" id="Layer_1" xmlns="http://www.w3.org/2000/svg" xmlns:xlink="http://www.w3.org/1999/xlink" x="0px" y="0px"
	 viewBox="0 0 117.96 117.98" style="enable-background:new 0 0 117.96 117.98;" xml:space="preserve">
<style type="text/css">
	.st0{fill:url(#Facebook_1_);}
</style>
<linearGradient id="Facebook_1_" gradientUnits="userSpaceOnUse" x1="-7.466416e-04" y1="58.991" x2="117.9551" y2="58.991">
	<stop  offset="0.2809" style="stop-color:#10408F"/>
	<stop  offset="1" style="stop-color:#287CE0"/>
</linearGradient>
<path id="Facebook" class="st0" d="M42.78,59.17h6.92V93.9h13.99V59.14h10.29c0.43-4.69,0.84-9.27,1.28-14.01H64.19
	c0-1.77,0-3.4,0-5.02c0.01-2.94,0.96-3.87,3.91-3.88h6.9V24.36c-0.31-0.03-0.55-0.08-0.79-0.08c-4.2,0.05-8.43-0.15-12.6,0.21
	c-6.07,0.52-10.1,4.21-11.46,10.17c-0.33,1.84-0.49,3.7-0.5,5.57c-0.07,1.61-0.01,3.23-0.01,5h-6.84L42.78,59.17z M58.87,117.98
	C26.22,117.85-0.13,91.27,0,58.63c0-0.02,0-0.03,0-0.05C0.1,26.19,26.66-0.05,59.4,0c32.24,0.06,58.76,26.73,58.55,59.18
	C117.83,91.71,91.4,118.01,58.87,117.98"/>
</svg>
