<?xml version="1.0" encoding="utf-8"?>
<!-- Generator: Adobe Illustrator 24.2.3, SVG Export Plug-In . SVG Version: 6.00 Build 0)  -->
<svg version="1.1" id="Layer_1" xmlns="http://www.w3.org/2000/svg" xmlns:xlink="http://www.w3.org/1999/xlink" x="0px" y="0px"
	 viewBox="0 0 50 50" style="enable-background:new 0 0 50 50;" xml:space="preserve">
<style type="text/css">
	.st0{fill:#10408F;}
</style>
<g id="Group_248" transform="translate(0 0)">
	<path id="Path_7012" class="st0" d="M16.1,45.21c-0.22-0.86-0.42-1.66-0.63-2.47c-0.76-3.04-1.53-6.09-2.29-9.13
		c-0.14-0.5-0.05-1.03,0.24-1.46c2.99-4.56,5.97-9.13,8.95-13.7c0.37-0.56,0.73-1.12,1.1-1.68c0.07-0.11,0.16-0.19,0.27-0.25
		c0.02,0.15,0.04,0.3,0.04,0.45c0,5.11,0,10.22,0,15.33c0,1.31-0.01,2.63,0.01,3.94c0.04,0.42-0.19,0.82-0.58,1
		c-1.7,0.94-2.32,3.08-1.38,4.78c0.4,0.72,1.03,1.27,1.79,1.57c1.24,0.55,2.69,0.3,3.68-0.63c1.46-1.26,1.62-3.47,0.36-4.93
		c-0.28-0.32-0.61-0.59-0.98-0.79c-0.38-0.18-0.6-0.56-0.58-0.98c0.01-3.85,0.01-7.7,0.01-11.55c0-2.61,0-5.22,0-7.82
		c0-0.13,0.02-0.25,0.02-0.38l0.08-0.03c0.08,0.11,0.17,0.22,0.25,0.33c3.21,4.9,6.4,9.82,9.65,14.7c0.59,0.8,0.75,1.84,0.45,2.78
		c-0.94,3.51-1.8,7.05-2.7,10.58c-0.02,0.09-0.03,0.18-0.06,0.33c0.39,0,0.76-0.01,1.13,0c0.32-0.01,0.64,0.02,0.96,0.06
		c0.63,0.13,1.03,0.75,0.89,1.38c-0.09,0.44-0.44,0.79-0.87,0.89c-0.22,0.05-0.45,0.07-0.68,0.07c-5.16,0-10.33,0-15.49,0
		c-1.71,0-3.42,0-5.13-0.02c-0.33-0.01-0.66-0.09-0.97-0.21c-0.41-0.12-0.68-0.51-0.64-0.94c-0.02-0.49,0.26-0.93,0.71-1.12
		c0.21-0.07,0.42-0.11,0.64-0.11C14.95,45.2,15.5,45.21,16.1,45.21z"/>
	<path id="Path_7013" class="st0" d="M11.72,9.55c-1.51,0-2.97,0-4.43,0c-0.31,0-0.44,0.26-0.56,0.48c-0.39,0.71-1,1.27-1.75,1.6
		c-1.3,0.56-2.81,0.3-3.84-0.68C0.08,10-0.28,8.5,0.23,7.17c0.61-1.84,2.59-2.84,4.44-2.24c0.85,0.24,1.56,0.82,1.96,1.6
		c0.2,0.42,0.64,0.68,1.1,0.64c3.6-0.02,7.2-0.01,10.8-0.02c0.47,0,0.47,0,0.47-0.48c0-0.96-0.01-1.92,0.01-2.88
		c0.02-0.98,0.46-1.41,1.44-1.41c3,0,6.01,0,9.01,0c1.03,0,1.45,0.41,1.46,1.44c0.01,0.97,0.01,1.94,0.01,2.91c0,0.11,0,0.23,0,0.38
		c0.21,0.01,0.39,0.03,0.58,0.03c3.68,0.01,7.36,0.01,11.05,0.02c0.35,0,0.67-0.21,0.79-0.54c0.91-1.71,3.03-2.36,4.74-1.45
		c0.07,0.03,0.13,0.07,0.19,0.11c1.69,1.01,2.24,3.21,1.23,4.9c-1.01,1.69-3.21,2.24-4.9,1.23c-0.11-0.06-0.21-0.13-0.31-0.21
		c-0.39-0.35-0.74-0.76-1.02-1.21c-0.15-0.29-0.45-0.47-0.77-0.45c-1.29,0.04-2.59,0.05-3.88,0.07c-0.09,0-0.18,0.02-0.35,0.04
		c0.15,0.1,0.23,0.16,0.31,0.21c3.02,1.79,5.58,4.25,7.5,7.19c1.7,2.68,2.8,5.69,3.23,8.84c0.13,0.97,0.21,1.95,0.23,2.93
		c0.04,0.84-0.43,1.38-1.14,1.4c-0.52,0.05-1-0.29-1.13-0.79c-0.06-0.26-0.1-0.53-0.1-0.8c-0.33-7.16-3.5-12.7-9.54-16.55
		c-1.89-1.16-3.97-1.98-6.14-2.42c-0.17-0.04-0.35-0.05-0.57-0.09v0.33c0,0.98,0,1.96,0,2.94c0,1.04-0.43,1.47-1.47,1.47
		c-3,0-6.01,0-9.01,0c-0.04,0-0.08,0-0.12,0c-0.86-0.03-1.27-0.41-1.3-1.27c-0.03-0.68-0.01-1.35-0.02-2.03c0-0.47,0-0.93,0-1.47
		c-0.66,0.15-1.26,0.26-1.85,0.42c-2.44,0.71-4.73,1.88-6.73,3.44c-4.09,3.09-6.44,7.25-7.34,12.26c-0.18,0.99-0.22,2.01-0.33,3.01
		c-0.02,0.18-0.02,0.36-0.05,0.53c-0.07,0.62-0.62,1.08-1.25,1.02c-0.62-0.02-1.1-0.54-1.08-1.16c0,0,0,0,0,0
		c0.01-0.85,0.05-1.71,0.14-2.56c0.39-3.7,1.73-7.24,3.9-10.27c1.81-2.58,4.15-4.74,6.87-6.33c0.12-0.07,0.23-0.15,0.34-0.22
		C11.66,9.62,11.69,9.59,11.72,9.55z"/>
	<path id="Path_7014" class="st0" d="M24.96,39.27c0.78,0.01,1.19,0.38,1.19,1.05c-0.01,0.67-0.55,1.2-1.22,1.19c0,0-0.01,0-0.01,0
		c-0.66-0.02-1.17-0.57-1.14-1.23c0,0,0,0,0-0.01C23.79,39.61,24.2,39.26,24.96,39.27z"/>
</g>
</svg>
