<?xml version="1.0" encoding="utf-8"?>
<!-- Generator: Adobe Illustrator 24.2.3, SVG Export Plug-In . SVG Version: 6.00 Build 0)  -->
<svg version="1.1" id="Layer_1" xmlns="http://www.w3.org/2000/svg" xmlns:xlink="http://www.w3.org/1999/xlink" x="0px" y="0px"
	 viewBox="0 0 119.87 119.87" style="enable-background:new 0 0 119.87 119.87;" xml:space="preserve">
<style type="text/css">
	.st0{fill:url(#Path_2084_1_);}
	.st1{fill:url(#Path_2085_1_);}
	.st2{fill:url(#Path_2086_1_);}
</style>
<g id="IG" transform="translate(-1777.571 -285.482)">
	<linearGradient id="Path_2084_1_" gradientUnits="userSpaceOnUse" x1="1777.571" y1="345.418" x2="1897.443" y2="345.418">
		<stop  offset="0.2809" style="stop-color:#10408F"/>
		<stop  offset="1" style="stop-color:#287CE0"/>
	</linearGradient>
	<path id="Path_2084" class="st0" d="M1837.51,285.48c-33.1,0-59.94,26.83-59.94,59.94c0,33.1,26.83,59.94,59.94,59.94
		c33.1,0,59.94-26.83,59.94-59.94C1897.44,312.32,1870.61,285.48,1837.51,285.48z M1873.77,361.36c-0.1,9.83-7.15,18.21-16.82,19.98
		c-1.22,0.22-2.45,0.34-3.69,0.34c-10.55,0.02-21.1,0.03-31.65,0.01c-9.82-0.09-18.21-7.12-20.01-16.78
		c-0.23-1.29-0.35-2.6-0.35-3.92c-0.03-10.38-0.03-20.77-0.02-31.15c-0.08-9.68,6.62-18.09,16.07-20.18
		c1.52-0.33,3.07-0.49,4.63-0.49c5.2-0.06,10.4-0.02,15.6-0.02c5.23,0,10.46-0.01,15.69,0c9.08,0,17.09,5.96,19.7,14.66
		c0.57,1.85,0.86,3.78,0.86,5.72C1873.78,340.14,1873.81,350.75,1873.77,361.36L1873.77,361.36z"/>
	<linearGradient id="Path_2085_1_" gradientUnits="userSpaceOnUse" x1="1825.5699" y1="345.416" x2="1849.4199" y2="345.416">
		<stop  offset="0.2809" style="stop-color:#10408F"/>
		<stop  offset="1" style="stop-color:#287CE0"/>
	</linearGradient>
	<path id="Path_2085" class="st1" d="M1837.5,333.49c-6.59,0-11.93,5.34-11.93,11.92s5.34,11.93,11.92,11.93
		c6.59,0,11.93-5.34,11.93-11.92c0-0.01,0-0.01,0-0.02C1849.39,338.83,1844.07,333.51,1837.5,333.49z"/>
	<linearGradient id="Path_2086_1_" gradientUnits="userSpaceOnUse" x1="1808.2085" y1="345.423" x2="1866.8088" y2="345.423">
		<stop  offset="0.2809" style="stop-color:#10408F"/>
		<stop  offset="1" style="stop-color:#287CE0"/>
	</linearGradient>
	<path id="Path_2086" class="st2" d="M1866.27,326.05c-1.62-5.87-6.97-9.93-13.06-9.92c-5.23-0.01-10.46-0.01-15.69,0
		c-5.18,0-10.37,0-15.55,0.01c-0.65-0.01-1.3,0.03-1.94,0.11c-6.76,0.89-11.82,6.65-11.82,13.47c-0.01,10.47-0.01,20.94,0.01,31.42
		c0,0.83,0.08,1.66,0.23,2.48c1.19,6.51,6.91,11.2,13.53,11.11c10.35,0.01,20.71,0.01,31.06,0c0.64,0.01,1.27-0.03,1.9-0.11
		c6.77-0.86,11.85-6.61,11.86-13.43c0.02-10.49,0.02-20.97-0.02-31.46C1866.77,328.47,1866.6,327.24,1866.27,326.05z
		 M1837.36,364.33c-10.44-0.08-18.85-8.6-18.77-19.05c0.08-10.44,8.6-18.85,19.05-18.77s18.85,8.6,18.77,19.05c0,0,0,0,0,0
		C1856.32,355.99,1847.8,364.39,1837.36,364.33L1837.36,364.33z M1856.8,330.6c-2.39-0.01-4.33-1.96-4.31-4.36
		c0.01-2.39,1.96-4.33,4.36-4.31c2.39,0.01,4.33,1.96,4.31,4.36c0,0,0,0.01,0,0.01C1861.14,328.69,1859.19,330.62,1856.8,330.6
		L1856.8,330.6z"/>
</g>
</svg>
