<?xml version="1.0" encoding="utf-8"?>
<!-- Generator: Adobe Illustrator 24.2.3, SVG Export Plug-In . SVG Version: 6.00 Build 0)  -->
<svg version="1.1" id="Layer_1" xmlns="http://www.w3.org/2000/svg" xmlns:xlink="http://www.w3.org/1999/xlink" x="0px" y="0px"
	 viewBox="0 0 119.87 118.16" style="enable-background:new 0 0 119.87 118.16;" xml:space="preserve">
<style type="text/css">
	.st0{fill:url(#Linked_In_1_);}
</style>
<linearGradient id="Linked_In_1_" gradientUnits="userSpaceOnUse" x1="2.858779e-03" y1="59.0851" x2="119.8767" y2="59.0851">
	<stop  offset="0.2809" style="stop-color:#10408F"/>
	<stop  offset="1" style="stop-color:#287CE0"/>
</linearGradient>
<path id="Linked_In" class="st0" d="M36.71,42.93c3.64,0,6.59-2.94,6.6-6.58c-0.05-3.69-3.07-6.64-6.76-6.59
	c-3.62,0.04-6.55,2.97-6.59,6.59c-0.01,3.63,2.93,6.58,6.56,6.59C36.58,42.93,36.64,42.93,36.71,42.93 M30.04,86.75h13.19v-39.3
	H30.04V86.75z M64.45,53.74v-6.27H52.36v39.27h12.66v-1.81c0-5.67-0.02-11.35,0.02-17.03c-0.01-1.41,0.11-2.81,0.35-4.19
	c0.74-4,3.36-5.94,7.69-5.82c3.63,0.1,5.66,2.15,6.16,6.22c0.05,0.36,0.07,0.73,0.08,1.09c0.03,6.61,0.06,13.23,0.08,19.84
	c0,0.55,0,1.1,0,1.68h12.86c0-2.73,0.03-5.33,0-7.93c-0.08-6.09,0.01-12.19-0.33-18.27c-0.25-4.49-1.73-8.61-5.96-11.14
	C79.13,45.33,69.53,47.14,64.45,53.74 M59.92,0C93.16,0.08,120,26.56,119.88,59.15c-0.13,32.85-26.92,59.1-60.23,59.02
	C26.58,118.09-0.12,91.47,0,58.71C0.13,26.31,27.06-0.07,59.92,0"/>
</svg>
