<?xml version="1.0" encoding="utf-8"?>
<!-- Generator: Adobe Illustrator 24.2.3, SVG Export Plug-In . SVG Version: 6.00 Build 0)  -->
<svg version="1.1" id="Layer_1" xmlns="http://www.w3.org/2000/svg" xmlns:xlink="http://www.w3.org/1999/xlink" x="0px" y="0px"
	 viewBox="0 0 125.83 92.02" style="enable-background:new 0 0 125.83 92.02;" xml:space="preserve">
<style type="text/css">
	.st0{fill:url(#SVGID_1_);}
</style>
<linearGradient id="SVGID_1_" gradientUnits="userSpaceOnUse" x1="-4.466983e-08" y1="46.011" x2="125.828" y2="46.011">
	<stop  offset="0.2809" style="stop-color:#10408F"/>
	<stop  offset="1" style="stop-color:#287CE0"/>
</linearGradient>
<path class="st0" d="M125.83,13.21v65.61c0,1.56-1.27,2.83-2.83,2.83c-0.75,0-1.47-0.3-2-0.83L84.89,44.71c-1.1-1.1-1.1-2.9,0-4
	c0.07-0.07,0.14-0.13,0.21-0.19l36.11-29.5c1.21-0.99,2.99-0.81,3.98,0.4C125.6,11.92,125.83,12.56,125.83,13.21z M0,78.83V13.24
	c0-1.56,1.27-2.83,2.83-2.83c0.66,0,1.29,0.23,1.8,0.65l35.98,29.68c1.21,0.99,1.38,2.78,0.38,3.98c-0.06,0.07-0.12,0.14-0.18,0.2
	L4.83,80.83c-1.11,1.1-2.9,1.1-4,0C0.3,80.3,0,79.58,0,78.83z M113.15,92.02H11.23c-1.56,0-2.83-1.27-2.83-2.83
	c0-0.75,0.3-1.47,0.83-2l38.5-38.5c0.97-0.97,2.49-1.1,3.61-0.33l10.41,7.2c1.05,0.72,2.45,0.66,3.43-0.16l7.66-6.43
	c1.12-0.94,2.77-0.87,3.81,0.16l38.49,38.05c1.11,1.1,1.12,2.89,0.02,4C114.62,91.72,113.9,92.02,113.15,92.02z M113.47,0H11.91
	c-1.56,0-2.83,1.27-2.83,2.83c0,0.87,0.4,1.69,1.08,2.23l50.88,39.91c1.03,0.81,2.47,0.81,3.5,0l50.68-39.91
	c1.23-0.96,1.44-2.74,0.48-3.97C115.17,0.4,114.34,0,113.47,0z"/>
</svg>
