<?xml version="1.0" encoding="utf-8"?>
<!-- Generator: Adobe Illustrator 24.2.3, SVG Export Plug-In . SVG Version: 6.00 Build 0)  -->
<svg version="1.1" id="Layer_1" xmlns="http://www.w3.org/2000/svg" xmlns:xlink="http://www.w3.org/1999/xlink" x="0px" y="0px"
	 viewBox="0 0 50 50" style="enable-background:new 0 0 50 50;" xml:space="preserve">
<style type="text/css">
	.st0{fill:#10408F;}
</style>
<g id="Group_250" transform="translate(0 0)">
	<path id="Path_7019" class="st0" d="M49.7,40.61c0.02,5.43-3.61,9.2-8.31,9.38c-4.62,0.14-8.5-3.42-8.77-8.03
		c0.02-0.62-0.37-1.19-0.95-1.4c-5.64-2.72-11.27-5.47-16.89-8.24c-0.48-0.29-1.09-0.27-1.54,0.06c-4.06,2.42-9.32,1.09-11.74-2.97
		S0.4,20.1,4.46,17.68c2.82-1.68,6.36-1.6,9.1,0.21c0.41,0.33,0.99,0.36,1.44,0.07c5.6-2.75,11.2-5.49,16.81-8.2
		c0.51-0.17,0.83-0.67,0.78-1.2c0-4.72,3.82-8.55,8.54-8.55c4.11,0,7.64,2.91,8.4,6.95c0.66,3.51-0.48,6.48-3.39,8.58
		c-2.9,2.09-6.05,2.21-9.2,0.52c-0.48-0.33-1.11-0.36-1.62-0.07c-5.7,2.81-11.42,5.58-17.12,8.39c-0.32,0.16-0.72,0.53-0.73,0.82
		c-0.01,0.27,0.39,0.67,0.7,0.82c5.62,2.77,11.26,5.5,16.88,8.27c0.45,0.28,1.02,0.25,1.44-0.07c2.84-1.78,5.82-1.92,8.75-0.31
		C48.17,35.5,49.59,38.07,49.7,40.61z"/>
</g>
</svg>
