<?xml version="1.0" encoding="utf-8"?>
<!-- Generator: Adobe Illustrator 24.2.3, SVG Export Plug-In . SVG Version: 6.00 Build 0)  -->
<svg version="1.1" id="Layer_1" xmlns="http://www.w3.org/2000/svg" xmlns:xlink="http://www.w3.org/1999/xlink" x="0px" y="0px"
	 viewBox="0 0 119.88 119.87" style="enable-background:new 0 0 119.88 119.87;" xml:space="preserve">
<style type="text/css">
	.st0{fill:url(#Twitter_1_);}
</style>
<linearGradient id="Twitter_1_" gradientUnits="userSpaceOnUse" x1="2.075195e-03" y1="59.937" x2="119.8761" y2="59.937">
	<stop  offset="0.2809" style="stop-color:#10408F"/>
	<stop  offset="1" style="stop-color:#287CE0"/>
</linearGradient>
<path id="Twitter" class="st0" d="M59.94,0C26.84,0,0,26.84,0,59.94c0,33.1,26.84,59.94,59.94,59.94s59.94-26.84,59.94-59.94
	c0,0,0,0,0,0C119.88,26.83,93.04,0,59.94,0z M94.92,39.44c-1.71,1.73-3.47,3.41-5.25,5.07c-0.35,0.27-0.55,0.7-0.53,1.14
	c0.23,8.87-2.26,17.59-7.14,25c-5.91,9.45-15.45,16.04-26.38,18.22c-5.18,1.1-10.51,1.26-15.75,0.45
	c-5.78-0.86-11.31-2.91-16.25-6.02c-0.07-0.04-0.14-0.1-0.35-0.27c7.92,0.87,15.87-1.37,22.17-6.25C39,76.64,33.36,72.43,31.4,66.3
	c2.19,0.39,4.44,0.3,6.59-0.27c-4.22-0.94-7.84-3.64-9.96-7.41c-1.31-2.3-1.96-4.91-1.9-7.55c2.01,1.09,4.24,1.71,6.52,1.83
	c-6.6-5.56-8.09-12.2-4.45-20.14c7.67,9.41,18.95,15.15,31.07,15.82c-0.09-0.86-0.19-1.66-0.26-2.46
	c-0.47-6.58,3.43-12.69,9.6-15.03c5.93-2.12,11.27-1,15.91,3.25c0.32,0.34,0.81,0.46,1.26,0.31c2.84-0.65,5.57-1.7,8.11-3.12
	c0.18-0.1,0.38-0.19,0.58-0.29c-0.3,2.27-2.62,5.33-6.05,8.19c0.88-0.16,1.77-0.28,2.65-0.49c0.92-0.22,1.84-0.48,2.75-0.77
	c0.88-0.28,1.73-0.62,2.81-1C96.11,37.97,95.54,38.72,94.92,39.44z"/>
</svg>
