<?xml version="1.0" encoding="utf-8"?>
<!-- Generator: Adobe Illustrator 24.2.3, SVG Export Plug-In . SVG Version: 6.00 Build 0)  -->
<svg version="1.1" id="Layer_1" xmlns="http://www.w3.org/2000/svg" xmlns:xlink="http://www.w3.org/1999/xlink" x="0px" y="0px"
	 viewBox="0 0 50 50" style="enable-background:new 0 0 50 50;" xml:space="preserve">
<style type="text/css">
	.st0{fill:#10408F;}
</style>
<g id="Group_246" transform="translate(0 0)">
	<path id="Path_6996" class="st0" d="M25-0.01c7.76,0,15.53,0,23.29,0c1.35,0,1.71,0.37,1.71,1.72c0,3.66,0,7.33,0,10.99
		c0,1.18-0.41,1.6-1.57,1.6c-15.61,0-31.23,0-46.84,0C0.41,14.3,0,13.88,0,12.7C0,9.02,0,5.33,0,1.65c0-1.27,0.38-1.66,1.64-1.66
		C9.43-0.01,17.21-0.01,25-0.01z M2.41,11.86h45.17V2.41H2.41V11.86z"/>
	<path id="Path_6997" class="st0" d="M0,17.88h2.36v29.7h45.23V17.91H50v0.74c0,9.88,0,19.75,0,29.63c0,1.39-0.35,1.74-1.77,1.74
		H1.77c-1.44,0-1.77-0.34-1.77-1.8c0-9.83,0-19.67,0-29.5L0,17.88z"/>
	<path id="Path_6998" class="st0" d="M23.81,30.96c0,3.84,0,7.68,0,11.52c0,1.18-0.4,1.59-1.58,1.59c-4.89,0-9.78,0-14.67,0
		c-1.22,0-1.62-0.4-1.62-1.63c0-7.66,0-15.31,0-22.97c0-1.23,0.38-1.6,1.62-1.6c4.89,0,9.78,0,14.67,0c1.19,0,1.57,0.38,1.57,1.57
		C23.81,23.28,23.81,27.12,23.81,30.96z M8.39,20.28v21.35H21.4V20.28H8.39z"/>
	<path id="Path_6999" class="st0" d="M27.39,20.2v-2.28h16.6v2.28H27.39z"/>
	<path id="Path_7000" class="st0" d="M44.01,26.16H27.43v-2.3h16.58V26.16z"/>
	<path id="Path_7001" class="st0" d="M44.02,29.8v2.29H27.41V29.8H44.02z"/>
	<path id="Path_7002" class="st0" d="M27.41,38.1v-2.36h16.64c0,0.69,0.01,1.38-0.01,2.07c0,0.1-0.17,0.24-0.28,0.27
		c-0.17,0.03-0.35,0.04-0.52,0.02H27.41z"/>
	<path id="Path_7003" class="st0" d="M27.41,44.02v-2.3h16.6v2.3H27.41z"/>
	<path id="Path_7004" class="st0" d="M17.86,7.13c0,0.64-0.52,1.17-1.17,1.18c-0.63,0.03-1.16-0.45-1.19-1.08c0-0.02,0-0.03,0-0.05
		c-0.03-0.65,0.47-1.2,1.12-1.23c0.02,0,0.04,0,0.06,0C17.32,5.97,17.84,6.49,17.86,7.13z"/>
	<path id="Path_7005" class="st0" d="M7.18,5.95c0.65,0.02,1.16,0.55,1.15,1.2c0.01,0.63-0.5,1.16-1.13,1.16c-0.03,0-0.07,0-0.1,0
		C6.45,8.28,5.94,7.74,5.96,7.1C6,6.45,6.53,5.95,7.18,5.95z"/>
	<path id="Path_7006" class="st0" d="M11.94,5.95c0.64,0.02,1.16,0.55,1.16,1.2c-0.01,0.65-0.54,1.17-1.19,1.16
		c-0.02,0-0.03,0-0.05,0c-0.63-0.02-1.13-0.54-1.11-1.17c0-0.01,0-0.03,0-0.04C10.76,6.45,11.29,5.95,11.94,5.95z"/>
</g>
</svg>
